<svg xmlns="http://www.w3.org/2000/svg" width="219.925" height="526.767" viewBox="0 0 219.925 526.767">
  <g id="Group_74" data-name="Group 74" transform="translate(-1016.075 -2828)">
    <g id="Path_207" data-name="Path 207" transform="translate(1059 2828)">
      <path d="M 67 133.5 C 58.02233505249023 133.5 49.31348419189453 131.7418212890625 41.11534881591797 128.2743072509766 C 37.17506790161133 126.6076965332031 33.37461853027344 124.5448837280273 29.81956672668457 122.1431503295898 C 26.29816627502441 119.7641296386719 22.98678398132324 117.031982421875 19.9773998260498 114.0225982666016 C 16.968017578125 111.0132141113281 14.23586654663086 107.7018356323242 11.85684967041016 104.1804351806641 C 9.455116271972656 100.6253814697266 7.392300128936768 96.82493591308594 5.725699901580811 92.88465118408203 C 2.258183240890503 84.68651580810547 0.5 75.97766876220703 0.5 67 C 0.5 58.02233505249023 2.258183240890503 49.31348419189453 5.725699901580811 41.11534881591797 C 7.392300128936768 37.17506790161133 9.455116271972656 33.37461853027344 11.85684967041016 29.81956672668457 C 14.23586654663086 26.29816627502441 16.968017578125 22.98678398132324 19.9773998260498 19.9773998260498 C 22.98678398132324 16.968017578125 26.29816627502441 14.23586654663086 29.81956672668457 11.85684967041016 C 33.37461853027344 9.455116271972656 37.17506790161133 7.392300128936768 41.11534881591797 5.725699901580811 C 49.31348419189453 2.258183240890503 58.02233505249023 0.5 67 0.5 C 75.97766876220703 0.5 84.68651580810547 2.258183240890503 92.88465118408203 5.725699901580811 C 96.82493591308594 7.392300128936768 100.6253814697266 9.455116271972656 104.1804351806641 11.85684967041016 C 107.7018356323242 14.23586654663086 111.0132141113281 16.968017578125 114.0225982666016 19.9773998260498 C 117.031982421875 22.98678398132324 119.7641296386719 26.29816627502441 122.1431503295898 29.81956672668457 C 124.5448837280273 33.37461853027344 126.6076965332031 37.17506790161133 128.2743072509766 41.11534881591797 C 131.7418212890625 49.31348419189453 133.5 58.02233505249023 133.5 67 C 133.5 75.97766876220703 131.7418212890625 84.68651580810547 128.2743072509766 92.88465118408203 C 126.6076965332031 96.82493591308594 124.5448837280273 100.6253814697266 122.1431503295898 104.1804351806641 C 119.7641296386719 107.7018356323242 117.031982421875 111.0132141113281 114.0225982666016 114.0225982666016 C 111.0132141113281 117.031982421875 107.7018356323242 119.7641296386719 104.1804351806641 122.1431503295898 C 100.6253814697266 124.5448837280273 96.82493591308594 126.6076965332031 92.88465118408203 128.2743072509766 C 84.68651580810547 131.7418212890625 75.97766876220703 133.5 67 133.5 Z" stroke="none"/>
      <path d="M 67 1 C 58.08961486816406 1 49.4462890625 2.744888305664063 41.31012725830078 6.186203002929688 C 37.39956665039063 7.840217590332031 33.62776184082031 9.88751220703125 30.09947204589844 12.27116394042969 C 26.60443878173828 14.63236236572266 23.31783294677734 17.34407043457031 20.33094787597656 20.33094787597656 C 17.34407043457031 23.31783294677734 14.63236236572266 26.60443878173828 12.27116394042969 30.09947204589844 C 9.88751220703125 33.62776184082031 7.840217590332031 37.39956665039063 6.186203002929688 41.31012725830078 C 2.744888305664063 49.4462890625 1 58.08961486816406 1 67 C 1 75.91038513183594 2.744888305664063 84.5537109375 6.186203002929688 92.68987274169922 C 7.840217590332031 96.60041809082031 9.88751220703125 100.3722381591797 12.27116394042969 103.9005279541016 C 14.63236236572266 107.3955612182617 17.34407043457031 110.6821594238281 20.33094787597656 113.6690521240234 C 23.31783294677734 116.6559295654297 26.60443878173828 119.3676376342773 30.09947204589844 121.7288360595703 C 33.62776184082031 124.1124877929688 37.39956665039063 126.159782409668 41.31012725830078 127.8137969970703 C 49.4462890625 131.2551116943359 58.08961486816406 133 67 133 C 75.91038513183594 133 84.5537109375 131.2551116943359 92.68987274169922 127.8137969970703 C 96.60041809082031 126.159782409668 100.3722381591797 124.1124877929688 103.9005279541016 121.7288360595703 C 107.3955612182617 119.3676376342773 110.6821594238281 116.6559295654297 113.6690521240234 113.6690521240234 C 116.6559295654297 110.6821594238281 119.3676376342773 107.3955612182617 121.7288360595703 103.9005279541016 C 124.1124877929688 100.3722381591797 126.159782409668 96.60041809082031 127.8137969970703 92.68987274169922 C 131.2551116943359 84.5537109375 133 75.91038513183594 133 67 C 133 58.08961486816406 131.2551116943359 49.4462890625 127.8137969970703 41.31012725830078 C 126.159782409668 37.39956665039063 124.1124877929688 33.62776184082031 121.7288360595703 30.09947204589844 C 119.3676376342773 26.60443878173828 116.6559295654297 23.31783294677734 113.6690521240234 20.33094787597656 C 110.6821594238281 17.34407043457031 107.3955612182617 14.63236236572266 103.9005279541016 12.27116394042969 C 100.3722381591797 9.88751220703125 96.60041809082031 7.840217590332031 92.68987274169922 6.186203002929688 C 84.5537109375 2.744888305664063 75.91038513183594 1 67 1 M 67 0 C 104.0030746459961 0 134 29.99691009521484 134 67 C 134 104.0030746459961 104.0030746459961 134 67 134 C 29.99691009521484 134 0 104.0030746459961 0 67 C 0 29.99691009521484 29.99691009521484 0 67 0 Z" stroke="none"/>
    </g>
    <g id="Path_210" data-name="Path 210" transform="translate(1061 2976)">
      <path d="M 72 225.5000152587891 L 57 225.5000152587891 C 49.37232208251953 225.5000152587891 41.97308731079102 224.0062255859375 35.00779342651367 221.0601654052734 C 31.66005897521973 219.6441955566406 28.43111801147461 217.8915710449219 25.41064643859863 215.8509826660156 C 22.41876411437988 213.8297271728516 19.60532379150391 211.5083923339844 17.04847145080566 208.9515533447266 C 14.4915885925293 206.3946685791016 12.1702938079834 203.5812225341797 10.14902973175049 200.5893402099609 C 8.108441352844238 197.5688934326172 6.355823516845703 194.3399353027344 4.939852714538574 190.9921875 C 1.993764758110046 184.0269012451172 0.5 176.6276702880859 0.5 168.9999847412109 L 0.5 56.9999885559082 C 0.5 41.29393005371094 5.148970603942871 26.9051342010498 13.5905590057373 16.48413467407227 C 17.93911743164063 11.11589908599854 23.16952896118164 6.92998743057251 29.13655853271484 4.0426344871521 C 35.34011840820313 1.040841221809387 42.24681854248047 -0.5036876797676086 49.67025375366211 -0.5499411225318909 L 67.96435546875 47.40137100219727 L 68.50864410400391 48.82804489135742 L 68.91358947753906 47.3557243347168 L 82.08966827392578 -0.54969322681427 C 89.47362518310547 -0.4985532164573669 96.22175598144531 1.044558048248291 102.1536178588867 4.038898944854736 C 107.8323211669922 6.905457973480225 112.7461776733398 11.08731079101563 116.7587356567383 16.46831130981445 C 120.5970916748047 21.61566352844238 123.5572052001953 27.77863502502441 125.556884765625 34.78601837158203 C 127.5097961425781 41.62954711914063 128.5 49.10339736938477 128.5 56.9999885559082 L 128.5 168.9999847412109 C 128.5 176.6276702880859 127.006233215332 184.0269012451172 124.0601501464844 190.9921875 C 122.644172668457 194.3399353027344 120.8915557861328 197.5688934326172 118.8509674072266 200.5893402099609 C 116.829704284668 203.5812225341797 114.508415222168 206.3946685791016 111.951530456543 208.9515533447266 C 109.3946762084961 211.5083923339844 106.5812377929688 213.8297271728516 103.58935546875 215.8509826660156 C 100.5688858032227 217.8915710449219 97.33994293212891 219.6441955566406 93.99220275878906 221.0601654052734 C 87.02690887451172 224.0062255859375 79.62767791748047 225.5000152587891 72 225.5000152587891 Z" stroke="none"/>
      <path d="M 49.32708740234375 -0.046722412109375 C 42.11013031005859 0.044219970703125 35.39388275146484 1.57025146484375 29.35435485839844 4.492691040039063 C 23.45400238037109 7.3477783203125 18.28099822998047 11.4881591796875 13.97905731201172 16.79884338378906 C 5.609382629394531 27.131103515625 1 41.40812683105469 1 56.99998474121094 L 1 168.9999847412109 C 1 176.5603637695313 2.480499267578125 183.8941040039063 5.400352478027344 190.7973937988281 C 6.803733825683594 194.1154327392578 8.540824890136719 197.3157196044922 10.56332397460938 200.3094329833984 C 12.56679534912109 203.2749328613281 14.86764526367188 206.0635986328125 17.40203094482422 208.5979614257813 C 19.93638610839844 211.1323394775391 22.72505950927734 213.4331970214844 25.69055938720703 215.4366607666016 C 28.68426513671875 217.4591674804688 31.88455963134766 219.1962585449219 35.20259094238281 220.5996398925781 C 42.10588073730469 223.5194854736328 49.43962097167969 224.9999847412109 57 224.9999847412109 L 72 224.9999847412109 C 79.56037902832031 224.9999847412109 86.89411926269531 223.5194854736328 93.79740905761719 220.5996398925781 C 97.11544036865234 219.1962585449219 100.3157348632813 217.4591674804688 103.309440612793 215.4366607666016 C 106.2749404907227 213.4331970214844 109.0636138916016 211.1323394775391 111.5979690551758 208.5979614257813 C 114.1323547363281 206.0635986328125 116.4332046508789 203.2749328613281 118.4366760253906 200.3094329833984 C 120.4591751098633 197.3157196044922 122.1962661743164 194.1154327392578 123.5996475219727 190.7973937988281 C 126.5195007324219 183.8941040039063 128 176.5603637695313 128 168.9999847412109 L 128 56.99998474121094 C 128 49.14981079101563 127.0162353515625 41.72210693359375 125.076057434082 34.9232177734375 C 123.0930862426758 27.97433471679688 120.1598815917969 21.86575317382813 116.35791015625 16.76719665527344 C 112.3920593261719 11.44880676269531 107.5372314453125 7.316574096679688 101.9282913208008 4.485244750976563 C 96.16877746582031 1.577896118164063 89.62578582763672 0.0548248291015625 82.46961212158203 -0.04571533203125 L 69.39570617675781 47.48834228515625 L 68.58579254150391 50.43295288085938 L 67.49717712402344 47.57957458496094 L 49.32708740234375 -0.046722412109375 M 50.01423645019531 -1.051040649414063 L 68.43150329589844 47.22312927246094 L 81.70896911621094 -1.051040649414063 C 113.189208984375 -1.051040649414063 129 25.519775390625 129 56.99998474121094 L 129 168.9999847412109 C 129 200.480224609375 103.4802398681641 225.9999847412109 72 225.9999847412109 L 57 225.9999847412109 C 25.51976776123047 225.9999847412109 0 200.480224609375 0 168.9999847412109 L 0 56.99998474121094 C 0 25.519775390625 18.53399658203125 -1.051040649414063 50.01423645019531 -1.051040649414063 Z" stroke="none"/>
    </g>
    <g id="Path_208" data-name="Path 208" transform="translate(1072.141 3128.767)" stroke-linecap="round">
      <path d="M 22.88492965698242 225.5 C 19.62709617614746 225.5 16.46420669555664 224.5983581542969 13.48406887054443 222.8201599121094 C 10.5899019241333 221.0932159423828 7.987707614898682 218.6167755126953 5.749735355377197 215.4595794677734 C 3.502735137939453 212.2896728515625 1.737763047218323 208.5956115722656 0.5038463473320007 204.4799957275391 C -0.7758759260177612 200.2116394042969 -1.424764752388 195.6763000488281 -1.424764752388 191 L -1.424764752388 35 C -1.424764752388 30.32369422912598 -0.7758759260177612 25.78836059570313 0.5038463473320007 21.52000045776367 C 1.737763047218323 17.40438842773438 3.502735137939453 13.7103328704834 5.749735355377197 10.5404167175293 C 7.987707614898682 7.383222103118896 10.5899019241333 4.906777858734131 13.48406887054443 3.17983341217041 C 16.46420669555664 1.401638865470886 19.62709617614746 0.5 22.88492965698242 0.5 C 26.14276313781738 0.5 29.3056526184082 1.401638865470886 32.28578948974609 3.17983341217041 C 35.17995834350586 4.906777858734131 37.78218078613281 7.383222103118896 40.0201530456543 10.5404167175293 C 42.26712417602539 13.7103328704834 44.03209686279297 17.40438842773438 45.26604080200195 21.52000045776367 C 46.54576110839844 25.78836059570313 47.19465255737305 30.32369422912598 47.19465255737305 35 L 47.19465255737305 191 C 47.19465255737305 195.6763000488281 46.54576110839844 200.2116394042969 45.26604080200195 204.4799957275391 C 44.03209686279297 208.5956115722656 42.26712417602539 212.2896728515625 40.0201530456543 215.4595794677734 C 37.78218078613281 218.6167755126953 35.17995834350586 221.0932159423828 32.28578948974609 222.8201599121094 C 29.3056526184082 224.5983581542969 26.14276313781738 225.5 22.88492965698242 225.5 Z" stroke="none"/>
      <path d="M 22.88492965698242 1 C 9.7562255859375 1 -0.9247779846191406 16.2523193359375 -0.9247779846191406 35 L -0.9247779846191406 191 C -0.9247779846191406 209.7476806640625 9.7562255859375 225 22.88492965698242 225 C 36.01363372802734 225 46.69463729858398 209.7476806640625 46.69463729858398 191 L 46.69463729858398 35 C 46.69463729858398 16.2523193359375 36.01363372802734 1 22.88492965698242 1 M 22.88492965698242 0 C 36.58695983886719 0 47.69463729858398 15.67002868652344 47.69463729858398 35 L 47.69463729858398 191 C 47.69463729858398 210.3299713134766 36.58695983886719 226 22.88492965698242 226 C 9.182899475097656 226 -1.924777984619141 210.3299713134766 -1.924777984619141 191 L -1.924777984619141 35 C -1.924777984619141 15.67002868652344 9.182899475097656 0 22.88492965698242 0 Z" stroke="none"/>
    </g>
    <g id="Path_209" data-name="Path 209" transform="translate(1137.141 3128.767)" stroke-linecap="round">
      <path d="M 22.88492965698242 225.5 C 19.62709617614746 225.5 16.46420669555664 224.5983581542969 13.48406887054443 222.8201599121094 C 10.5899019241333 221.0932159423828 7.987707614898682 218.6167755126953 5.749735355377197 215.4595794677734 C 3.502735137939453 212.2896728515625 1.737763047218323 208.5956115722656 0.5038463473320007 204.4799957275391 C -0.7758759260177612 200.2116394042969 -1.424764752388 195.6763000488281 -1.424764752388 191 L -1.424764752388 35 C -1.424764752388 30.32369422912598 -0.7758759260177612 25.78836059570313 0.5038463473320007 21.52000045776367 C 1.737763047218323 17.40438842773438 3.502735137939453 13.7103328704834 5.749735355377197 10.5404167175293 C 7.987707614898682 7.383222103118896 10.5899019241333 4.906777858734131 13.48406887054443 3.17983341217041 C 16.46420669555664 1.401638865470886 19.62709617614746 0.5 22.88492965698242 0.5 C 26.14276313781738 0.5 29.3056526184082 1.401638865470886 32.28578948974609 3.17983341217041 C 35.17995834350586 4.906777858734131 37.78218078613281 7.383222103118896 40.0201530456543 10.5404167175293 C 42.26712417602539 13.7103328704834 44.03209686279297 17.40438842773438 45.26604080200195 21.52000045776367 C 46.54576110839844 25.78836059570313 47.19465255737305 30.32369422912598 47.19465255737305 35 L 47.19465255737305 191 C 47.19465255737305 195.6763000488281 46.54576110839844 200.2116394042969 45.26604080200195 204.4799957275391 C 44.03209686279297 208.5956115722656 42.26712417602539 212.2896728515625 40.0201530456543 215.4595794677734 C 37.78218078613281 218.6167755126953 35.17995834350586 221.0932159423828 32.28578948974609 222.8201599121094 C 29.3056526184082 224.5983581542969 26.14276313781738 225.5 22.88492965698242 225.5 Z" stroke="none"/>
      <path d="M 22.88492965698242 1 C 9.7562255859375 1 -0.9247779846191406 16.2523193359375 -0.9247779846191406 35 L -0.9247779846191406 191 C -0.9247779846191406 209.7476806640625 9.7562255859375 225 22.88492965698242 225 C 36.01363372802734 225 46.69463729858398 209.7476806640625 46.69463729858398 191 L 46.69463729858398 35 C 46.69463729858398 16.2523193359375 36.01363372802734 1 22.88492965698242 1 M 22.88492965698242 0 C 36.58695983886719 0 47.69463729858398 15.67002868652344 47.69463729858398 35 L 47.69463729858398 191 C 47.69463729858398 210.3299713134766 36.58695983886719 226 22.88492965698242 226 C 9.182899475097656 226 -1.924777984619141 210.3299713134766 -1.924777984619141 191 L -1.924777984619141 35 C -1.924777984619141 15.67002868652344 9.182899475097656 0 22.88492965698242 0 Z" stroke="none"/>
    </g>
    <g id="Path_211" data-name="Path 211" transform="translate(955.613 3159.639) rotate(-87)" stroke-linecap="round">
      <path d="M 159.0736083984375 136.2547454833984 C 151.8255157470703 136.2547454833984 121.3046417236328 133.2790679931641 88.78014373779297 125.9134063720703 C 70.51035308837891 121.7759323120117 54.72621917724609 116.9634628295898 41.86616897583008 111.609619140625 C 26.29945755004883 105.1289596557617 15.14495658874512 97.88796234130859 8.712483406066895 90.08775329589844 C 5.494667530059814 86.18575286865234 3.395509481430054 82.61264801025391 2.473299026489258 79.46769714355469 C 1.650062203407288 76.66030120849609 1.751825332641602 74.13578033447266 2.77574634552002 71.96417236328125 C 4.75300931930542 67.77077484130859 10.15219402313232 64.71295928955078 18.82337760925293 62.87564468383789 C 26.25827217102051 61.30027770996094 34.55961608886719 60.9695930480957 40.21437835693359 60.9695930480957 C 44.12082672119141 60.9695930480957 46.86603164672852 61.12860488891602 47.279296875 61.15401840209961 C 48.50878143310547 61.51399612426758 70.2960205078125 67.91342926025391 95.05916595458984 76.44659423828125 C 109.9535369873047 81.57904052734375 122.9934844970703 86.46749114990234 133.8167724609375 90.97611999511719 C 147.3264770507813 96.60382843017578 157.3919830322266 101.6477813720703 163.7337188720703 105.9678268432617 C 168.7518310546875 109.3861999511719 172.2155914306641 112.7942504882813 174.0288238525391 116.0972747802734 C 175.5548553466797 118.8771438598633 175.9212493896484 121.6082000732422 175.1178283691406 124.2146224975586 C 173.8573760986328 128.3038330078125 170.0421447753906 131.2906951904297 167.0635375976563 133.0763244628906 C 163.6496124267578 135.1228790283203 160.1722259521484 136.2547454833984 159.0736083984375 136.2547454833984 Z" stroke="none"/>
      <path d="M 40.21434020996094 61.4696044921875 C 34.58348083496094 61.4696044921875 26.31953430175781 61.79840087890625 18.92698669433594 63.36479187011719 C 14.95549011230469 64.206298828125 11.64009094238281 65.32257080078125 9.072982788085938 66.68262481689453 C 6.194671630859375 68.20754241943359 4.228118896484375 70.05626678466797 3.227981567382813 72.17740631103516 C 1.143096923828125 76.59909820556641 3.118118286132813 82.51799011230469 9.09820556640625 89.76963043212891 C 15.47828674316406 97.50629425048828 26.56765747070313 104.6990432739258 42.05831909179688 111.1480484008789 C 54.89198303222656 116.4908752441406 70.64862060546875 121.2946014404297 88.89056396484375 125.4257659912109 C 121.3762054443359 132.7826232910156 151.8419494628906 135.7547607421875 159.0735931396484 135.7547607421875 C 159.9886169433594 135.7547607421875 163.3552398681641 134.7164001464844 166.8064575195313 132.6474914550781 C 168.7022094726563 131.5110168457031 170.3176574707031 130.2566223144531 171.6078796386719 128.9192199707031 C 173.1062316894531 127.3659896850586 174.1264038085938 125.7335739135742 174.6400146484375 124.0673217773438 C 175.4020385742188 121.5951538085938 175.0489501953125 118.9945983886719 173.5905151367188 116.3378753662109 C 171.8155670166016 113.1045989990234 168.4045715332031 109.7546539306641 163.4522399902344 106.3810729980469 C 157.1387634277344 102.0802688598633 147.1038970947266 97.05284881591797 133.6263732910156 91.43846130371094 C 122.8133163452148 86.93402099609375 109.7839279174805 82.04954528808594 94.90017700195313 76.920654296875 C 70.44638061523438 68.49398803710938 48.89438629150391 62.1485595703125 47.1927490234375 61.64968872070313 C 46.63542175292969 61.61643981933594 43.9617919921875 61.4696044921875 40.21434020996094 61.4696044921875 M 40.21434020996094 60.46958923339844 C 44.50687408447266 60.46958923339844 47.36618041992188 60.65849304199219 47.36618041992188 60.65849304199219 C 47.36618041992188 60.65849304199219 136.08837890625 86.530517578125 164.0152282714844 105.5546035766602 C 191.9420623779297 124.5786590576172 162.9815979003906 136.7547607421875 159.0735931396484 136.7547607421875 C 144.1318664550781 136.7547607421875 36.5205078125 124.5945434570313 8.326705932617188 90.40585327148438 C -14.052490234375 63.26815795898438 23.69337463378906 60.46958923339844 40.21434020996094 60.46958923339844 Z" stroke="none"/>
    </g>
    <g id="Path_212" data-name="Path 212" transform="translate(1159.819 3165.379) rotate(-93)" stroke-linecap="round">
      <path d="M 38.79441833496094 75.78519439697266 C 33.13962936401367 75.78517150878906 24.83826065063477 75.45449066162109 17.40339088439941 73.87911987304688 C 8.732207298278809 72.04180145263672 3.332996845245361 68.98396301269531 1.355733752250671 64.79056549072266 C 0.3318126797676086 62.61898803710938 0.2300495058298111 60.09443283081055 1.05328631401062 57.28706741333008 C 1.975523233413696 54.14209365844727 4.074681282043457 50.56901168823242 7.292470455169678 46.66701507568359 C 13.72494411468506 38.86680221557617 24.87947082519531 31.62580299377441 40.44618225097656 25.14514541625977 C 53.30623245239258 19.79130172729492 69.09036254882813 14.9788293838501 87.36018371582031 10.8413553237915 C 119.8846817016602 3.47569727897644 150.4055786132813 0.5000131726264954 157.6536865234375 0.5000131726264954 C 158.7522888183594 0.5000131726264954 162.2297058105469 1.631881594657898 165.6436309814453 3.678434133529663 C 168.6222381591797 5.464066028594971 172.4374389648438 8.450934410095215 173.6979217529297 12.54014492034912 C 174.5013427734375 15.14656543731689 174.1349487304688 17.87761878967285 172.6089172363281 20.65748596191406 C 170.7956848144531 23.96051406860352 167.3319244384766 27.36856651306152 162.3138122558594 30.78693389892578 C 155.9720764160156 35.10698699951172 145.9065551757813 40.15093612670898 132.3968353271484 45.77864456176758 C 121.5735473632813 50.28727722167969 108.533576965332 55.17572402954102 93.63920593261719 60.30819702148438 C 68.87606048583984 68.84136199951172 47.08882141113281 75.24079895019531 45.85933685302734 75.60076904296875 C 45.44607543945313 75.62618255615234 42.70088958740234 75.78519439697266 38.79441833496094 75.78519439697266 Z" stroke="none"/>
      <path d="M 38.79535675048828 75.28519439697266 C 42.54203414916992 75.28519439697266 45.21549224853516 75.13835906982422 45.77276229858398 75.10509490966797 C 47.47440719604492 74.60622406005859 69.02642059326172 68.26080322265625 93.48021697998047 59.8341064453125 C 108.3639984130859 54.70524597167969 121.3933563232422 49.82074737548828 132.2064361572266 45.31630325317383 C 145.6839752197266 39.70191192626953 155.7188262939453 34.67449569702148 162.0323028564453 30.37369155883789 C 166.9846343994141 27.00010871887207 170.3956604003906 23.6501636505127 172.1706085205078 20.41688537597656 C 173.6290283203125 17.76016426086426 173.9821319580078 15.15960788726807 173.2201080322266 12.6874418258667 C 172.7064971923828 11.02119159698486 171.6863250732422 9.388774871826172 170.1879730224609 7.83555269241333 C 168.8977508544922 6.498136043548584 167.2823028564453 5.243747234344482 165.3865203857422 4.107275009155273 C 161.9353332519531 2.038358211517334 158.5687103271484 0.999997079372406 157.6536865234375 0.999997079372406 C 150.4220581054688 0.999997079372406 119.9562759399414 3.9721360206604 87.47060394287109 11.3289966583252 C 69.22869110107422 15.46016407012939 53.47202301025391 20.26388549804688 40.63835525512695 25.60671997070313 C 25.14768981933594 32.05571746826172 14.05830097198486 39.24847030639648 7.67821741104126 46.98513412475586 C 1.698134303092957 54.23677444458008 -0.2768934667110443 60.15563583374023 1.807995438575745 64.57733154296875 C 2.808161973953247 66.69847106933594 4.774689674377441 68.54718780517578 7.653023242950439 70.07210540771484 C 10.22013473510742 71.43216705322266 13.53549575805664 72.54843902587891 17.50702285766602 73.38996887207031 C 24.89952278137207 74.95635986328125 33.16352462768555 75.28516387939453 38.79494094848633 75.28519439697266 L 38.79535675048828 75.28519439697266 M 38.7944221496582 76.28519439697266 C 22.27345657348633 76.28514099121094 -15.4724817276001 73.48661041259766 6.906717777252197 46.34891510009766 C 35.10055160522461 12.16021919250488 142.7119445800781 -2.912733179982752e-06 157.6536865234375 -2.912733179982752e-06 C 161.5616912841797 -2.912733179982752e-06 190.5221557617188 12.17610836029053 162.5953063964844 31.20016288757324 C 134.6684417724609 50.22424697875977 45.94618988037109 76.09630584716797 45.94618988037109 76.09630584716797 C 45.94618988037109 76.09630584716797 43.08695220947266 76.28520965576172 38.7944221496582 76.28519439697266 Z" stroke="none"/>
    </g>
    <g id="Path_213" data-name="Path 213" transform="translate(1124 2977)">
      <path d="M 4 20.5 C 2.089761257171631 20.5 0.5320485830307007 18.9619083404541 0.5004918575286865 17.05905532836914 L 2.662709951400757 8.336440086364746 L 2.707969903945923 8.153850555419922 L 2.621649980545044 7.986710071563721 L 0.5042219161987305 3.886695146560669 C 0.6131737232208252 2.388145923614502 2.805202722549438 -0.1463481783866882 4 -1.369340300559998 C 5.198681831359863 -0.1423719227313995 7.401088714599609 2.404604196548462 7.496772289276123 3.901242017745972 L 5.670629978179932 8.013199806213379 L 5.604730129241943 8.161590576171875 L 5.638579845428467 8.320380210876465 L 7.499634265899658 17.05096817016602 C 7.472370147705078 18.95755386352539 5.912948131561279 20.5 4 20.5 Z" stroke="none"/>
      <path d="M 4 -0.6412258148193359 C 3.649309635162354 -0.2659378051757813 3.205915451049805 0.2293033599853516 2.76669979095459 0.7761802673339844 C 1.435020923614502 2.434274673461914 1.095414161682129 3.356640815734863 1.019634246826172 3.795038223266602 L 3.065909862518311 7.757280349731445 L 3.238550186157227 8.091560363769531 L 3.148019790649414 8.456740379333496 L 1.002120018005371 17.113525390625 C 1.061938285827637 18.71540832519531 2.383752822875977 20 4 20 C 5.621396064758301 20 6.946488380432129 18.70700836181641 6.998420715332031 17.0980052947998 L 5.14955997467041 8.424620628356934 L 5.081870079040527 8.107029914855957 L 5.21366024017334 7.810259819030762 L 6.984813213348389 3.822122573852539 C 6.91848087310791 3.395224571228027 6.593105316162109 2.469295501708984 5.23330020904541 0.7761802673339844 C 4.794084548950195 0.2293033599853516 4.350690364837646 -0.2659378051757813 4 -0.6412258148193359 M 4 -2.075439453125 C 4 -2.075439453125 8 1.790861129760742 8 4 L 6.127590179443359 8.216140747070313 L 8 17 C 8 19.20914077758789 6.209139823913574 21 4 21 C 1.790860176086426 21 0 19.20914077758789 0 17 L 2.1774001121521 8.216140747070313 L 0 4 C 0 1.790861129760742 4 -2.075439453125 4 -2.075439453125 Z" stroke="none"/>
    </g>
  </g>
</svg>
