<svg xmlns="http://www.w3.org/2000/svg" width="251.222" height="519.767" viewBox="0 0 251.222 519.767">
  <g id="Group_73" data-name="Group 73" transform="translate(-456.493 -2748)">
    <g id="Group_72" data-name="Group 72" transform="translate(-663 588)">
      <g id="Group_70" data-name="Group 70" transform="translate(2 -11)">
        <g id="Group_69" data-name="Group 69" transform="translate(108 15)">
          <g id="Path_201" data-name="Path 201" transform="translate(1113 2156)">
            <path d="M 67 133.5 C 58.02233505249023 133.5 49.31348419189453 131.7418212890625 41.11534881591797 128.2743072509766 C 37.17506790161133 126.6076965332031 33.37461853027344 124.5448837280273 29.81956672668457 122.1431503295898 C 26.29816627502441 119.7641296386719 22.98678398132324 117.031982421875 19.9773998260498 114.0225982666016 C 16.968017578125 111.0132141113281 14.23586654663086 107.7018356323242 11.85684967041016 104.1804351806641 C 9.455116271972656 100.6253814697266 7.392300128936768 96.82493591308594 5.725699901580811 92.88465118408203 C 2.258183240890503 84.68651580810547 0.5 75.97766876220703 0.5 67 C 0.5 58.02233505249023 2.258183240890503 49.31348419189453 5.725699901580811 41.11534881591797 C 7.392300128936768 37.17506790161133 9.455116271972656 33.37461853027344 11.85684967041016 29.81956672668457 C 14.23586654663086 26.29816627502441 16.968017578125 22.98678398132324 19.9773998260498 19.9773998260498 C 22.98678398132324 16.968017578125 26.29816627502441 14.23586654663086 29.81956672668457 11.85684967041016 C 33.37461853027344 9.455116271972656 37.17506790161133 7.392300128936768 41.11534881591797 5.725699901580811 C 49.31348419189453 2.258183240890503 58.02233505249023 0.5 67 0.5 C 75.97766876220703 0.5 84.68651580810547 2.258183240890503 92.88465118408203 5.725699901580811 C 96.82493591308594 7.392300128936768 100.6253814697266 9.455116271972656 104.1804351806641 11.85684967041016 C 107.7018356323242 14.23586654663086 111.0132141113281 16.968017578125 114.0225982666016 19.9773998260498 C 117.031982421875 22.98678398132324 119.7641296386719 26.29816627502441 122.1431503295898 29.81956672668457 C 124.5448837280273 33.37461853027344 126.6076965332031 37.17506790161133 128.2743072509766 41.11534881591797 C 131.7418212890625 49.31348419189453 133.5 58.02233505249023 133.5 67 C 133.5 75.97766876220703 131.7418212890625 84.68651580810547 128.2743072509766 92.88465118408203 C 126.6076965332031 96.82493591308594 124.5448837280273 100.6253814697266 122.1431503295898 104.1804351806641 C 119.7641296386719 107.7018356323242 117.031982421875 111.0132141113281 114.0225982666016 114.0225982666016 C 111.0132141113281 117.031982421875 107.7018356323242 119.7641296386719 104.1804351806641 122.1431503295898 C 100.6253814697266 124.5448837280273 96.82493591308594 126.6076965332031 92.88465118408203 128.2743072509766 C 84.68651580810547 131.7418212890625 75.97766876220703 133.5 67 133.5 Z" stroke="none"/>
            <path d="M 67 1 C 58.08961486816406 1 49.4462890625 2.744888305664063 41.31012725830078 6.186203002929688 C 37.39956665039063 7.840217590332031 33.62776184082031 9.88751220703125 30.09947204589844 12.27116394042969 C 26.60443878173828 14.63236236572266 23.31783294677734 17.34407043457031 20.33094787597656 20.33094787597656 C 17.34407043457031 23.31783294677734 14.63236236572266 26.60443878173828 12.27116394042969 30.09947204589844 C 9.88751220703125 33.62776184082031 7.840217590332031 37.39956665039063 6.186203002929688 41.31012725830078 C 2.744888305664063 49.4462890625 1 58.08961486816406 1 67 C 1 75.91038513183594 2.744888305664063 84.5537109375 6.186203002929688 92.68987274169922 C 7.840217590332031 96.60041809082031 9.88751220703125 100.3722381591797 12.27116394042969 103.9005279541016 C 14.63236236572266 107.3955612182617 17.34407043457031 110.6821594238281 20.33094787597656 113.6690521240234 C 23.31783294677734 116.6559295654297 26.60443878173828 119.3676376342773 30.09947204589844 121.7288360595703 C 33.62776184082031 124.1124877929688 37.39956665039063 126.159782409668 41.31012725830078 127.8137969970703 C 49.4462890625 131.2551116943359 58.08961486816406 133 67 133 C 75.91038513183594 133 84.5537109375 131.2551116943359 92.68987274169922 127.8137969970703 C 96.60041809082031 126.159782409668 100.3722381591797 124.1124877929688 103.9005279541016 121.7288360595703 C 107.3955612182617 119.3676376342773 110.6821594238281 116.6559295654297 113.6690521240234 113.6690521240234 C 116.6559295654297 110.6821594238281 119.3676376342773 107.3955612182617 121.7288360595703 103.9005279541016 C 124.1124877929688 100.3722381591797 126.159782409668 96.60041809082031 127.8137969970703 92.68987274169922 C 131.2551116943359 84.5537109375 133 75.91038513183594 133 67 C 133 58.08961486816406 131.2551116943359 49.4462890625 127.8137969970703 41.31012725830078 C 126.159782409668 37.39956665039063 124.1124877929688 33.62776184082031 121.7288360595703 30.09947204589844 C 119.3676376342773 26.60443878173828 116.6559295654297 23.31783294677734 113.6690521240234 20.33094787597656 C 110.6821594238281 17.34407043457031 107.3955612182617 14.63236236572266 103.9005279541016 12.27116394042969 C 100.3722381591797 9.88751220703125 96.60041809082031 7.840217590332031 92.68987274169922 6.186203002929688 C 84.5537109375 2.744888305664063 75.91038513183594 1 67 1 M 67 0 C 104.0030746459961 0 134 29.99691009521484 134 67 C 134 104.0030746459961 104.0030746459961 134 67 134 C 29.99691009521484 134 0 104.0030746459961 0 67 C 0 29.99691009521484 29.99691009521484 0 67 0 Z" stroke="none"/>
          </g>
          <g id="Rectangle_43" data-name="Rectangle 43" transform="translate(1077 2283)" stroke="#000" stroke-width="1">
            <rect width="114" height="226" rx="57" stroke="none"/>
            <rect x="0.5" y="0.5" width="113" height="225" rx="56.5" fill="none"/>
          </g>
        </g>
      </g>
    </g>
    <g id="Path_202" data-name="Path 202" transform="translate(451.251 3261.826) rotate(-171)" stroke-linecap="round">
      <path d="M0,35V191S0,15.67,0,35Z" stroke="none"/>
      <path d="M 1.01923942565918e-05 33.51153564453125 C 1.01923942565918e-05 33.51153564453125 1.01923942565918e-05 33.99006652832031 1.01923942565918e-05 34.99998474121094 L 1.01923942565918e-05 190.9998931884766 L 1.01923942565918e-05 33.51153564453125 Z" stroke="none"/>
    </g>
    <g id="Path_203" data-name="Path 203" transform="translate(530.141 3041.767)" stroke-linecap="round">
      <path d="M 22.88492965698242 225.5 C 19.62709617614746 225.5 16.46420669555664 224.5983581542969 13.48406887054443 222.8201599121094 C 10.5899019241333 221.0932159423828 7.987707614898682 218.6167755126953 5.749735355377197 215.4595794677734 C 3.502735137939453 212.2896728515625 1.737763047218323 208.5956115722656 0.5038463473320007 204.4799957275391 C -0.7758759260177612 200.2116394042969 -1.424764752388 195.6763000488281 -1.424764752388 191 L -1.424764752388 35 C -1.424764752388 30.32369422912598 -0.7758759260177612 25.78836059570313 0.5038463473320007 21.52000045776367 C 1.737763047218323 17.40438842773438 3.502735137939453 13.7103328704834 5.749735355377197 10.5404167175293 C 7.987707614898682 7.383222103118896 10.5899019241333 4.906777858734131 13.48406887054443 3.17983341217041 C 16.46420669555664 1.401638865470886 19.62709617614746 0.5 22.88492965698242 0.5 C 26.14276313781738 0.5 29.3056526184082 1.401638865470886 32.28578948974609 3.17983341217041 C 35.17995834350586 4.906777858734131 37.78218078613281 7.383222103118896 40.0201530456543 10.5404167175293 C 42.26712417602539 13.7103328704834 44.03209686279297 17.40438842773438 45.26604080200195 21.52000045776367 C 46.54576110839844 25.78836059570313 47.19465255737305 30.32369422912598 47.19465255737305 35 L 47.19465255737305 191 C 47.19465255737305 195.6763000488281 46.54576110839844 200.2116394042969 45.26604080200195 204.4799957275391 C 44.03209686279297 208.5956115722656 42.26712417602539 212.2896728515625 40.0201530456543 215.4595794677734 C 37.78218078613281 218.6167755126953 35.17995834350586 221.0932159423828 32.28578948974609 222.8201599121094 C 29.3056526184082 224.5983581542969 26.14276313781738 225.5 22.88492965698242 225.5 Z" stroke="none"/>
      <path d="M 22.88492965698242 1 C 9.7562255859375 1 -0.9247779846191406 16.2523193359375 -0.9247779846191406 35 L -0.9247779846191406 191 C -0.9247779846191406 209.7476806640625 9.7562255859375 225 22.88492965698242 225 C 36.01363372802734 225 46.69463729858398 209.7476806640625 46.69463729858398 191 L 46.69463729858398 35 C 46.69463729858398 16.2523193359375 36.01363372802734 1 22.88492965698242 1 M 22.88492965698242 0 C 36.58695983886719 0 47.69463729858398 15.67002868652344 47.69463729858398 35 L 47.69463729858398 191 C 47.69463729858398 210.3299713134766 36.58695983886719 226 22.88492965698242 226 C 9.182899475097656 226 -1.924777984619141 210.3299713134766 -1.924777984619141 191 L -1.924777984619141 35 C -1.924777984619141 15.67002868652344 9.182899475097656 0 22.88492965698242 0 Z" stroke="none"/>
    </g>
    <g id="Path_204" data-name="Path 204" transform="translate(587.141 3041.767)" stroke-linecap="round">
      <path d="M 22.88492965698242 225.5 C 19.62709617614746 225.5 16.46420669555664 224.5983581542969 13.48406887054443 222.8201599121094 C 10.5899019241333 221.0932159423828 7.987707614898682 218.6167755126953 5.749735355377197 215.4595794677734 C 3.502735137939453 212.2896728515625 1.737763047218323 208.5956115722656 0.5038463473320007 204.4799957275391 C -0.7758759260177612 200.2116394042969 -1.424764752388 195.6763000488281 -1.424764752388 191 L -1.424764752388 35 C -1.424764752388 30.32369422912598 -0.7758759260177612 25.78836059570313 0.5038463473320007 21.52000045776367 C 1.737763047218323 17.40438842773438 3.502735137939453 13.7103328704834 5.749735355377197 10.5404167175293 C 7.987707614898682 7.383222103118896 10.5899019241333 4.906777858734131 13.48406887054443 3.17983341217041 C 16.46420669555664 1.401638865470886 19.62709617614746 0.5 22.88492965698242 0.5 C 26.14276313781738 0.5 29.3056526184082 1.401638865470886 32.28578948974609 3.17983341217041 C 35.17995834350586 4.906777858734131 37.78218078613281 7.383222103118896 40.0201530456543 10.5404167175293 C 42.26712417602539 13.7103328704834 44.03209686279297 17.40438842773438 45.26604080200195 21.52000045776367 C 46.54576110839844 25.78836059570313 47.19465255737305 30.32369422912598 47.19465255737305 35 L 47.19465255737305 191 C 47.19465255737305 195.6763000488281 46.54576110839844 200.2116394042969 45.26604080200195 204.4799957275391 C 44.03209686279297 208.5956115722656 42.26712417602539 212.2896728515625 40.0201530456543 215.4595794677734 C 37.78218078613281 218.6167755126953 35.17995834350586 221.0932159423828 32.28578948974609 222.8201599121094 C 29.3056526184082 224.5983581542969 26.14276313781738 225.5 22.88492965698242 225.5 Z" stroke="none"/>
      <path d="M 22.88492965698242 1 C 9.7562255859375 1 -0.9247779846191406 16.2523193359375 -0.9247779846191406 35 L -0.9247779846191406 191 C -0.9247779846191406 209.7476806640625 9.7562255859375 225 22.88492965698242 225 C 36.01363372802734 225 46.69463729858398 209.7476806640625 46.69463729858398 191 L 46.69463729858398 35 C 46.69463729858398 16.2523193359375 36.01363372802734 1 22.88492965698242 1 M 22.88492965698242 0 C 36.58695983886719 0 47.69463729858398 15.67002868652344 47.69463729858398 35 L 47.69463729858398 191 C 47.69463729858398 210.3299713134766 36.58695983886719 226 22.88492965698242 226 C 9.182899475097656 226 -1.924777984619141 210.3299713134766 -1.924777984619141 191 L -1.924777984619141 35 C -1.924777984619141 15.67002868652344 9.182899475097656 0 22.88492965698242 0 Z" stroke="none"/>
    </g>
    <g id="Path_205" data-name="Path 205" transform="translate(504.673 2890.677) rotate(-9)" stroke-linecap="round">
      <path d="M 159.0736083984375 136.2547607421875 C 151.8255157470703 136.2547607421875 121.3046417236328 133.2790832519531 88.78014373779297 125.9133987426758 C 70.51035308837891 121.7759475708008 54.72621917724609 116.9634475708008 41.86616897583008 111.6096038818359 C 26.29945755004883 105.1289520263672 15.14495658874512 97.88794708251953 8.712483406066895 90.08773803710938 C 3.210614681243896 83.41603088378906 0.4477989971637726 75.47581481933594 0.5007463693618774 66.48768615722656 C 0.5244569182395935 62.46226501464844 1.118720054626465 58.20084381103516 2.267035961151123 53.8217887878418 C 3.333035945892334 49.7565803527832 4.887009620666504 45.54597473144531 6.885772705078125 41.30697631835938 C 9.391009330749512 35.99381637573242 12.56145668029785 30.68244743347168 16.30906295776367 25.52042198181152 C 19.69511413574219 20.85642242431641 23.54569435119629 16.35613250732422 27.44450950622559 12.50605392456055 C 34.94385147094727 5.10047435760498 42.16822052001953 0.5000271797180176 46.29829788208008 0.5000271797180176 C 47.69508743286133 0.5000271797180176 48.83119201660156 1.073500871658325 49.77153396606445 2.253211498260498 C 53.06353759765625 6.383158683776855 53.61521911621094 17.74936866760254 51.36695861816406 35.12302780151367 C 49.65790557861328 48.32989501953125 46.90635299682617 60.42634201049805 46.87874603271484 60.54700088500977 L 46.77363967895508 61.00652694702148 L 47.22619247436523 61.13847351074219 C 47.44792938232422 61.20313262939453 69.69219207763672 67.70534515380859 95.05916595458984 76.44657897949219 C 109.9535369873047 81.57905578613281 122.9934844970703 86.46749877929688 133.8167724609375 90.97613525390625 C 147.3264770507813 96.60384368896484 157.3919830322266 101.6477890014648 163.7337188720703 105.9678421020508 C 168.7518310546875 109.3862152099609 172.2155914306641 112.7942352294922 174.0288238525391 116.0972900390625 C 175.5548553466797 118.8771362304688 175.9212493896484 121.6082077026367 175.1178283691406 124.2146072387695 C 173.8573760986328 128.3038177490234 170.0421447753906 131.2907104492188 167.0635375976563 133.0763397216797 C 163.6496124267578 135.1228942871094 160.1722259521484 136.2547607421875 159.0736083984375 136.2547607421875 Z" stroke="none"/>
      <path d="M 46.29828643798828 1.000030517578125 C 44.38148498535156 1.000030517578125 41.66889953613281 2.0777587890625 38.45381164550781 4.11669921875 C 35.15870666503906 6.206390380859375 31.47320556640625 9.230422973632813 27.79582214355469 12.86183929443359 C 23.91609191894531 16.69303131103516 20.08395385742188 21.17189788818359 16.71368408203125 25.81420135498047 C 12.984375 30.95100402832031 9.8299560546875 36.23528289794922 7.3380126953125 41.52022552490234 C 5.352310180664063 45.73153686523438 3.80889892578125 49.91306304931641 2.75067138671875 53.94864654541016 C 1.612960815429688 58.28725433349609 1.024200439453125 62.50700378417969 1.000732421875 66.49064636230469 C 0.948486328125 75.35850524902344 3.672866821289063 83.190673828125 9.09820556640625 89.76962280273438 C 15.47828674316406 97.50628662109375 26.56765747070313 104.6990356445313 42.05831909179688 111.1480331420898 C 54.89198303222656 116.4908676147461 70.64862060546875 121.2945861816406 88.89056396484375 125.4257583618164 C 121.3762054443359 132.7826232910156 151.8419494628906 135.7547607421875 159.0735931396484 135.7547607421875 C 159.9886169433594 135.7547607421875 163.3552398681641 134.7164306640625 166.8064575195313 132.6474761962891 C 168.7022094726563 131.5110015869141 170.3176574707031 130.2566528320313 171.6078796386719 128.9192047119141 C 173.1062316894531 127.3659820556641 174.1264038085938 125.7335891723633 174.6400146484375 124.0673370361328 C 175.4020385742188 121.5951766967773 175.0489501953125 118.9945907592773 173.5905151367188 116.3378982543945 C 171.8155975341797 113.1045913696289 168.4045715332031 109.7546463012695 163.4522399902344 106.3810577392578 C 157.1387634277344 102.0802612304688 147.1038970947266 97.05284118652344 133.6263732910156 91.43844604492188 C 122.8133163452148 86.93400573730469 109.7839279174805 82.04953002929688 94.90017700195313 76.92064666748047 C 69.54412078857422 68.18305969238281 47.30786895751953 61.68312072753906 47.08623504638672 61.61850738525391 L 46.18115234375 61.35456085205078 L 46.39134216308594 60.43550872802734 C 46.41889953613281 60.31511688232422 49.16509246826172 48.24214935302734 50.87109375 35.058837890625 C 51.87026214599609 27.33759307861328 52.32125854492188 20.76042175292969 52.21159362792969 15.51003265380859 C 52.14714813232422 12.42533874511719 51.88626098632813 9.779891967773438 51.43618011474609 7.647140502929688 C 50.95939636230469 5.387863159179688 50.26776123046875 3.677947998046875 49.38053894042969 2.564865112304688 C 48.54120635986328 1.51190185546875 47.53301239013672 1.000030517578125 46.29828643798828 1.000030517578125 M 46.29828643798828 3.0517578125e-05 C 61.24003601074219 3.0517578125e-05 47.36618041992188 60.65847778320313 47.36618041992188 60.65847778320313 C 47.36618041992188 60.65847778320313 136.08837890625 86.53050231933594 164.0152282714844 105.5545883178711 C 191.9420623779297 124.5786743164063 162.9815979003906 136.7547607421875 159.0735931396484 136.7547607421875 C 144.1318664550781 136.7547607421875 36.5205078125 124.5945358276367 8.326705932617188 90.40583801269531 C -19.86712646484375 56.21717071533203 31.3565673828125 3.0517578125e-05 46.29828643798828 3.0517578125e-05 Z" stroke="none"/>
    </g>
    <g id="Path_206" data-name="Path 206" transform="translate(694.141 2981.078)" stroke-linecap="round">
      <path d="M 5.824984550476074 286.188720703125 C 5.023984432220459 286.188720703125 4.116841793060303 285.0594177246094 3.270627498626709 283.0089111328125 C 2.361663103103638 280.8063659667969 1.543091654777527 277.6402893066406 0.8376274108886719 273.5986938476563 C -0.6213011741638184 265.2403869628906 -1.424765467643738 254.1214294433594 -1.424765467643738 242.2900390625 L -1.424765467643738 44.39871597290039 C -1.424765467643738 32.56732559204102 -0.6213011741638184 21.44836044311523 0.8376274108886719 13.09003925323486 C 1.543091654777527 9.048431396484375 2.361663103103638 5.882360458374023 3.270627498626709 3.679824590682983 C 4.116841793060303 1.629288911819458 5.023984432220459 0.5000032186508179 5.824984550476074 0.5000032186508179 C 6.625984668731689 0.5000032186508179 7.533127307891846 1.629288911819458 8.379342079162598 3.679824590682983 C 9.28830623626709 5.882360458374023 10.10687732696533 9.048431396484375 10.81234169006348 13.09003925323486 C 12.27126979827881 21.44836044311523 13.07473468780518 32.56732559204102 13.07473468780518 44.39871597290039 L 13.07473468780518 242.2900390625 C 13.07473468780518 254.1214294433594 12.27126979827881 265.2403869628906 10.81234169006348 273.5986938476563 C 10.10687732696533 277.6402893066406 9.28830623626709 280.8063659667969 8.379342079162598 283.0089111328125 C 7.533127307891846 285.0594177246094 6.625984668731689 286.188720703125 5.824984550476074 286.188720703125 Z" stroke="none"/>
      <path d="M 5.824984550476074 1 C 5.40630578994751 1 4.607162952423096 1.751800537109375 3.732806205749512 3.87054443359375 C 2.837734222412109 6.0394287109375 2.029376983642578 9.170257568359375 1.330199241638184 13.176025390625 C -0.1239442825317383 21.50677490234375 -0.9247655868530273 32.59521484375 -0.9247655868530273 44.398681640625 L -0.9247655868530273 242.2900085449219 C -0.9247655868530273 254.0934753417969 -0.1239442825317383 265.181884765625 1.330199241638184 273.5126953125 C 2.029376983642578 277.5184631347656 2.837734222412109 280.6492919921875 3.732806205749512 282.8181762695313 C 4.607162952423096 284.9369201660156 5.40630578994751 285.688720703125 5.824984550476074 285.688720703125 C 6.243663311004639 285.688720703125 7.042806148529053 284.9369201660156 7.917162895202637 282.8181762695313 C 8.812234878540039 280.6492919921875 9.62059211730957 277.5184631347656 10.31976985931396 273.5126953125 C 11.77391338348389 265.181884765625 12.57473468780518 254.0934753417969 12.57473468780518 242.2900085449219 L 12.57473468780518 44.398681640625 C 12.57473468780518 32.59521484375 11.77391338348389 21.50677490234375 10.31976985931396 13.176025390625 C 9.62059211730957 9.170257568359375 8.812234878540039 6.0394287109375 7.917162895202637 3.87054443359375 C 7.042806148529053 1.751800537109375 6.243663311004639 1 5.824984550476074 1 M 5.824984550476074 0 C 10.105055809021 0 13.57473468780518 19.87796020507813 13.57473468780518 44.398681640625 L 13.57473468780518 242.2900085449219 C 13.57473468780518 266.8107604980469 10.105055809021 286.688720703125 5.824984550476074 286.688720703125 C 1.544913291931152 286.688720703125 -1.924765586853027 266.8107604980469 -1.924765586853027 242.2900085449219 L -1.924765586853027 44.398681640625 C -1.924765586853027 19.87796020507813 1.544913291931152 0 5.824984550476074 0 Z" stroke="none"/>
    </g>
  </g>
</svg>
