<svg xmlns="http://www.w3.org/2000/svg" width="296.933" height="466.747" viewBox="0 0 296.933 466.747">
  <g id="Group_71" data-name="Group 71" transform="translate(-922 -2152)">
    <g id="Group_70" data-name="Group 70" transform="translate(-3 -10)">
      <g id="Group_69" data-name="Group 69">
        <g id="Path_201" data-name="Path 201" transform="translate(1066 2162)">
          <path d="M 67 133.5 C 58.02233505249023 133.5 49.31348419189453 131.7418212890625 41.11534881591797 128.2743072509766 C 37.17506790161133 126.6076965332031 33.37461853027344 124.5448837280273 29.81956672668457 122.1431503295898 C 26.29816627502441 119.7641296386719 22.98678398132324 117.031982421875 19.9773998260498 114.0225982666016 C 16.968017578125 111.0132141113281 14.23586654663086 107.7018356323242 11.85684967041016 104.1804351806641 C 9.455116271972656 100.6253814697266 7.392300128936768 96.82493591308594 5.725699901580811 92.88465118408203 C 2.258183240890503 84.68651580810547 0.5 75.97766876220703 0.5 67 C 0.5 58.02233505249023 2.258183240890503 49.31348419189453 5.725699901580811 41.11534881591797 C 7.392300128936768 37.17506790161133 9.455116271972656 33.37461853027344 11.85684967041016 29.81956672668457 C 14.23586654663086 26.29816627502441 16.968017578125 22.98678398132324 19.9773998260498 19.9773998260498 C 22.98678398132324 16.968017578125 26.29816627502441 14.23586654663086 29.81956672668457 11.85684967041016 C 33.37461853027344 9.455116271972656 37.17506790161133 7.392300128936768 41.11534881591797 5.725699901580811 C 49.31348419189453 2.258183240890503 58.02233505249023 0.5 67 0.5 C 75.97766876220703 0.5 84.68651580810547 2.258183240890503 92.88465118408203 5.725699901580811 C 96.82493591308594 7.392300128936768 100.6253814697266 9.455116271972656 104.1804351806641 11.85684967041016 C 107.7018356323242 14.23586654663086 111.0132141113281 16.968017578125 114.0225982666016 19.9773998260498 C 117.031982421875 22.98678398132324 119.7641296386719 26.29816627502441 122.1431503295898 29.81956672668457 C 124.5448837280273 33.37461853027344 126.6076965332031 37.17506790161133 128.2743072509766 41.11534881591797 C 131.7418212890625 49.31348419189453 133.5 58.02233505249023 133.5 67 C 133.5 75.97766876220703 131.7418212890625 84.68651580810547 128.2743072509766 92.88465118408203 C 126.6076965332031 96.82493591308594 124.5448837280273 100.6253814697266 122.1431503295898 104.1804351806641 C 119.7641296386719 107.7018356323242 117.031982421875 111.0132141113281 114.0225982666016 114.0225982666016 C 111.0132141113281 117.031982421875 107.7018356323242 119.7641296386719 104.1804351806641 122.1431503295898 C 100.6253814697266 124.5448837280273 96.82493591308594 126.6076965332031 92.88465118408203 128.2743072509766 C 84.68651580810547 131.7418212890625 75.97766876220703 133.5 67 133.5 Z" stroke="none"/>
          <path d="M 67 1 C 58.08961486816406 1 49.4462890625 2.744888305664063 41.31012725830078 6.186203002929688 C 37.39956665039063 7.840217590332031 33.62776184082031 9.88751220703125 30.09947204589844 12.27116394042969 C 26.60443878173828 14.63236236572266 23.31783294677734 17.34407043457031 20.33094787597656 20.33094787597656 C 17.34407043457031 23.31783294677734 14.63236236572266 26.60443878173828 12.27116394042969 30.09947204589844 C 9.88751220703125 33.62776184082031 7.840217590332031 37.39956665039063 6.186203002929688 41.31012725830078 C 2.744888305664063 49.4462890625 1 58.08961486816406 1 67 C 1 75.91038513183594 2.744888305664063 84.5537109375 6.186203002929688 92.68987274169922 C 7.840217590332031 96.60041809082031 9.88751220703125 100.3722381591797 12.27116394042969 103.9005279541016 C 14.63236236572266 107.3955612182617 17.34407043457031 110.6821594238281 20.33094787597656 113.6690521240234 C 23.31783294677734 116.6559295654297 26.60443878173828 119.3676376342773 30.09947204589844 121.7288360595703 C 33.62776184082031 124.1124877929688 37.39956665039063 126.159782409668 41.31012725830078 127.8137969970703 C 49.4462890625 131.2551116943359 58.08961486816406 133 67 133 C 75.91038513183594 133 84.5537109375 131.2551116943359 92.68987274169922 127.8137969970703 C 96.60041809082031 126.159782409668 100.3722381591797 124.1124877929688 103.9005279541016 121.7288360595703 C 107.3955612182617 119.3676376342773 110.6821594238281 116.6559295654297 113.6690521240234 113.6690521240234 C 116.6559295654297 110.6821594238281 119.3676376342773 107.3955612182617 121.7288360595703 103.9005279541016 C 124.1124877929688 100.3722381591797 126.159782409668 96.60041809082031 127.8137969970703 92.68987274169922 C 131.2551116943359 84.5537109375 133 75.91038513183594 133 67 C 133 58.08961486816406 131.2551116943359 49.4462890625 127.8137969970703 41.31012725830078 C 126.159782409668 37.39956665039063 124.1124877929688 33.62776184082031 121.7288360595703 30.09947204589844 C 119.3676376342773 26.60443878173828 116.6559295654297 23.31783294677734 113.6690521240234 20.33094787597656 C 110.6821594238281 17.34407043457031 107.3955612182617 14.63236236572266 103.9005279541016 12.27116394042969 C 100.3722381591797 9.88751220703125 96.60041809082031 7.840217590332031 92.68987274169922 6.186203002929688 C 84.5537109375 2.744888305664063 75.91038513183594 1 67 1 M 67 0 C 104.0030746459961 0 134 29.99691009521484 134 67 C 134 104.0030746459961 104.0030746459961 134 67 134 C 29.99691009521484 134 0 104.0030746459961 0 67 C 0 29.99691009521484 29.99691009521484 0 67 0 Z" stroke="none"/>
        </g>
        <g id="Rectangle_43" data-name="Rectangle 43" transform="translate(1105 2299)" stroke="#000" stroke-width="1">
          <rect width="86" height="210" rx="43" stroke="none"/>
          <rect x="0.5" y="0.5" width="85" height="209" rx="42.5" fill="none"/>
        </g>
        <g id="Path_199" data-name="Path 199" transform="translate(1127.105 2452.574) rotate(17)" stroke-linecap="round">
          <path d="M 16.76916694641113 166.3375396728516 C 13.79516696929932 166.3375396728516 10.9096040725708 165.6711730957031 8.192667007446289 164.3569641113281 C 5.563146114349365 163.0850524902344 3.200333595275879 161.2627563476563 1.169916868209839 158.9407196044922 C -0.8647705912590027 156.6138458251953 -2.462666511535645 153.9030303955078 -3.579395532608032 150.8836212158203 C -4.736895561218262 147.75390625 -5.323812484741211 144.4285278320313 -5.323812484741211 140.9998626708984 L -5.323812484741211 140.9274749755859 L -5.344354152679443 140.8580322265625 C -5.370832920074463 140.7685394287109 -8.022187232971191 131.764404296875 -10.63908290863037 119.3648834228516 C -12.17539596557617 112.08544921875 -13.39937496185303 105.0774917602539 -14.2770414352417 98.53565979003906 C -15.37314605712891 90.36559295654297 -15.92891597747803 82.90526580810547 -15.92891597747803 76.36186981201172 C -15.92891597747803 69.82178497314453 -15.37360382080078 63.10634613037109 -14.27841663360596 56.40205383300781 C -13.40208339691162 51.03763580322266 -12.18016624450684 45.66863632202148 -10.64660358428955 40.44413757324219 C -8.037395477294922 31.55524063110352 -5.400791645050049 26.11090850830078 -5.374458312988281 26.05694961547852 L -5.323812484741211 25.95315742492676 L -5.323812484741211 25.83767890930176 C -5.323812484741211 22.40901184082031 -4.736895561218262 19.08363723754883 -3.579395532608032 15.95392894744873 C -2.462666511535645 12.9345121383667 -0.8647705912590027 10.22369956970215 1.169916868209839 7.896824836730957 C 3.200333595275879 5.574782848358154 5.563146114349365 3.752491474151611 8.192667007446289 2.480574607849121 C 10.9096040725708 1.166366338729858 13.79516696929932 0.500012218952179 16.76916694641113 0.500012218952179 C 19.74316596984863 0.500012218952179 22.62872886657715 1.166366338729858 25.34566688537598 2.480574607849121 C 27.9752082824707 3.752491474151611 30.33799934387207 5.574782848358154 32.36843872070313 7.896824836730957 C 34.40312576293945 10.22369956970215 36.00102233886719 12.9345121383667 37.11775207519531 15.95392894744873 C 38.26889038085938 19.06644439697266 38.8557014465332 22.37222671508789 38.86211395263672 25.78092956542969 L 26.90275001525879 77.5777587890625 L 26.87914657592773 77.68001556396484 L 26.89864540100098 77.78315734863281 L 38.86212921142578 141.0465393066406 C 38.85684967041016 144.4587860107422 38.27002334594727 147.7680511474609 37.11775207519531 150.8836212158203 C 36.00102233886719 153.9030303955078 34.40312576293945 156.6138458251953 32.36843872070313 158.9407196044922 C 30.33799934387207 161.2627563476563 27.9752082824707 163.0850524902344 25.34566688537598 164.3569641113281 C 22.62872886657715 165.6711730957031 19.74316596984863 166.3375396728516 16.76916694641113 166.3375396728516 Z" stroke="none"/>
          <path d="M 16.76916885375977 1 C 13.87119007110596 1 11.05888652801514 1.649566650390625 8.410408020019531 2.930679321289063 C 5.841669082641602 4.173171997070313 3.532255172729492 5.954757690429688 1.546298980712891 8.225936889648438 C -0.4481582641601563 10.50682067871094 -2.014917373657227 13.16526794433594 -3.110462188720703 16.12736511230469 C -4.24737548828125 19.20137023925781 -4.823831558227539 22.46839904785156 -4.823831558227539 25.83767700195313 L -4.823940277099609 26.068603515625 L -4.925004959106445 26.2760009765625 C -4.951309204101563 26.32994079589844 -7.583635330200195 31.7718505859375 -10.18109130859375 40.63349914550781 C -11.70532989501953 45.83369445800781 -12.91963577270508 51.17713165283203 -13.79028701782227 56.51537322998047 C -14.87761306762695 63.18206787109375 -15.42891693115234 69.85939025878906 -15.42891693115234 76.36186981201172 C -15.42891693115234 82.88165283203125 -14.87487411499023 90.31780242919922 -13.78219985961914 98.46378326416016 C -12.9065055847168 104.9920883178711 -11.6850700378418 111.9864196777344 -10.15180969238281 119.2524795532227 C -7.538984298706055 131.6344604492188 -4.891353607177734 140.6268005371094 -4.864896774291992 140.7162017822266 L -4.823831558227539 140.8550720214844 L -4.823831558227539 140.9998474121094 C -4.823831558227539 144.3691253662109 -4.24737548828125 147.6361541748047 -3.110462188720703 150.7101593017578 C -2.014917373657227 153.6722564697266 -0.4481582641601563 156.3307037353516 1.546298980712891 158.6115875244141 C 3.532255172729492 160.8827667236328 5.841669082641602 162.6643524169922 8.410408020019531 163.9068450927734 C 11.05888652801514 165.1879577636719 13.87119007110596 165.8375244140625 16.76916885375977 165.8375244140625 C 19.66714668273926 165.8375244140625 22.47945213317871 165.1879577636719 25.1279296875 163.9068450927734 C 27.69666862487793 162.6643524169922 30.00608062744141 160.8827667236328 31.99203872680664 158.6115875244141 C 33.98649597167969 156.3307037353516 35.55325698852539 153.6722564697266 36.64879989624023 150.7101593017578 C 37.77523422241211 147.6644897460938 38.35149383544922 144.4291381835938 38.36202239990234 141.0927886962891 L 26.40736389160156 77.87604522705078 L 26.36836433410645 77.66980743408203 L 26.41558074951172 77.46526336669922 L 38.3619499206543 25.72465515136719 C 38.34922027587891 22.395263671875 37.77301406860352 19.16703796386719 36.64879989624023 16.12736511230469 C 35.55325698852539 13.16526794433594 33.98649597167969 10.50682067871094 31.99203872680664 8.225936889648438 C 30.00608062744141 5.954757690429688 27.69666862487793 4.173171997070313 25.1279296875 2.930679321289063 C 22.47945213317871 1.649566650390625 19.66714668273926 1 16.76916885375977 1 M 16.76916885375977 0 C 29.24692916870117 0 39.36216735839844 11.56791687011719 39.36216735839844 25.83767700195313 L 27.38995170593262 77.69023895263672 L 39.36216735839844 140.9998474121094 C 39.36216735839844 155.2696075439453 29.24692916870117 166.8375244140625 16.76916885375977 166.8375244140625 C 4.291408538818359 166.8375244140625 -5.823831558227539 155.2696075439453 -5.823831558227539 140.9998474121094 C -5.823831558227539 140.9998474121094 -16.42891693115234 105.1524200439453 -16.42891693115234 76.36186981201172 C -16.42891693115234 47.57132720947266 -5.823831558227539 25.83767700195313 -5.823831558227539 25.83767700195313 C -5.823831558227539 11.56791687011719 4.291408538818359 0 16.76916885375977 0 Z" stroke="none"/>
        </g>
        <g id="Ellipse_11" data-name="Ellipse 11" transform="translate(925 2537)" stroke="#000" stroke-width="1">
          <circle cx="38.5" cy="38.5" r="38.5" stroke="none"/>
          <circle cx="38.5" cy="38.5" r="38" fill="none"/>
        </g>
        <g id="Path_198" data-name="Path 198" transform="translate(1141.948 2466.434) rotate(-9)" stroke-linecap="round">
          <path d="M 19.32723236083984 162.4343719482422 C 16.36583709716797 162.4343719482422 13.49264907836914 161.7834625244141 10.78748226165771 160.4997100830078 C 8.170107841491699 159.2576293945313 5.818398952484131 157.478271484375 3.797669887542725 155.2110595703125 C 1.773253202438354 152.9397277832031 0.1834823936223984 150.2937622070313 -0.9275175929069519 147.3467102050781 C -2.078934192657471 144.2923889160156 -2.662746667861938 141.0471649169922 -2.662746667861938 137.701171875 L -2.662746667861938 137.6515045166016 L -2.672517538070679 137.602783203125 C -2.686725854873657 137.5320434570313 -4.108205318450928 130.408203125 -5.511309146881104 119.9461212158203 C -6.805663585662842 110.2946472167969 -8.348621368408203 95.74737548828125 -8.348621368408203 81.25381469726563 C -8.348621368408203 66.75733184814453 -6.805079936981201 52.32297897338867 -5.510205268859863 42.76676940917969 C -4.107204914093018 32.41245651245117 -2.686996698379517 25.40264511108398 -2.672809362411499 25.33304023742676 L -2.662746667861938 25.28362274169922 L -2.662746667861938 25.23320770263672 C -2.662746667861938 21.88720703125 -2.078934192657471 18.64197731018066 -0.9275175929069519 15.58768558502197 C 0.1834823936223984 12.64062309265137 1.773253202438354 9.994665145874023 3.797669887542725 7.723310947418213 C 5.818398952484131 5.456123352050781 8.170107841491699 3.676748514175415 10.78748226165771 2.434665203094482 C 13.49264907836914 1.150915145874023 16.36583709716797 0.4999984800815582 19.32723236083984 0.4999984800815582 C 22.28862762451172 0.4999984800815582 25.16181564331055 1.150915145874023 27.86698150634766 2.434665203094482 C 30.4843578338623 3.676748514175415 32.83606719970703 5.456123352050781 34.85679626464844 7.723310947418213 C 36.88121032714844 9.994665145874023 38.47098159790039 12.64062309265137 39.58198165893555 15.58768558502197 C 40.73080062866211 18.63508033752441 41.31457138061523 21.87229919433594 41.31719970703125 25.21028709411621 L 35.96969223022461 82.87212371826172 L 35.96529388427734 82.91951751708984 L 35.96992111206055 82.96689605712891 L 36.1187744140625 84.49112701416016 L 41.31719970703125 137.7253265380859 C 41.31442642211914 141.0628814697266 40.73065948486328 144.2996673583984 39.58198165893555 147.3467102050781 C 38.47098159790039 150.2937622070313 36.88121032714844 152.9397277832031 34.85679626464844 155.2110595703125 C 32.83606719970703 157.478271484375 30.4843578338623 159.2576293945313 27.86698150634766 160.4997100830078 C 25.16181564331055 161.7834625244141 22.28862762451172 162.4343719482422 19.32723236083984 162.4343719482422 Z" stroke="none"/>
          <path d="M 19.32723426818848 1 C 16.44056701660156 1 13.63950538635254 1.634658813476563 11.00183868408203 2.886367797851563 C 8.445192337036133 4.09967041015625 6.146942138671875 5.838958740234375 4.170942306518555 8.055999755859375 C 2.18754768371582 10.28131103515625 0.6295890808105469 12.87467956542969 -0.4596633911132813 15.76405334472656 C -1.589744567871094 18.76179504394531 -2.162746429443359 21.94766235351563 -2.162746429443359 25.23320007324219 L -2.162746429443359 25.33406066894531 L -2.182891845703125 25.43287658691406 C -2.197036743164063 25.50230407714844 -3.613933563232422 32.495849609375 -5.014743804931641 42.83391571044922 C -6.307537078857422 52.37487030029297 -7.848621368408203 66.78520965576172 -7.848621368408203 81.25381469726563 C -7.848621368408203 95.71658325195313 -6.308723449707031 110.2367477416992 -5.016910552978516 119.8708953857422 C -3.615951538085938 130.3190307617188 -2.19647216796875 137.4337768554688 -2.182285308837891 137.5044097900391 L -2.162746429443359 137.6018371582031 L -2.162746429443359 137.701171875 C -2.162746429443359 140.9867095947266 -1.589744567871094 144.172607421875 -0.4596633911132813 147.1703338623047 C 0.6295890808105469 150.0597076416016 2.18754768371582 152.6530609130859 4.170942306518555 154.8783721923828 C 6.146942138671875 157.0954132080078 8.445192337036133 158.8347320556641 11.00183868408203 160.0480041503906 C 13.63950538635254 161.2997131347656 16.44056701660156 161.9343719482422 19.32723426818848 161.9343719482422 C 22.21390151977539 161.9343719482422 25.01496315002441 161.2997131347656 27.65262985229492 160.0480041503906 C 30.20927619934082 158.8347320556641 32.50752639770508 157.0954132080078 34.48352432250977 154.8783721923828 C 36.46692276000977 152.6530609130859 38.02487945556641 150.0597076416016 39.11412811279297 147.1703338623047 C 40.23869705200195 144.1872406005859 40.81160354614258 141.0180053710938 40.81716918945313 137.7494812011719 L 35.62110900878906 84.53970336914063 L 35.47227478027344 83.01548004150391 L 35.46302795410156 82.92073059082031 L 35.47181701660156 82.82595825195313 L 40.81717300415039 25.18734741210938 C 40.81188201904297 21.91796875 40.23897171020508 18.74787902832031 39.11412811279297 15.76405334472656 C 38.02487945556641 12.87467956542969 36.46692276000977 10.28131103515625 34.48352432250977 8.055999755859375 C 32.50752639770508 5.838958740234375 30.20927619934082 4.09967041015625 27.65262985229492 2.886367797851563 C 25.01496315002441 1.634658813476563 22.21390151977539 1 19.32723426818848 1 M 19.32723426818848 0 C 31.74810981750488 0 41.81721496582031 11.29728698730469 41.81721496582031 25.23320007324219 L 36.46754837036133 82.91828918457031 L 36.61637878417969 84.44252014160156 L 41.81721496582031 137.701171875 C 41.81721496582031 151.6371002197266 31.74810981750488 162.9343719482422 19.32723426818848 162.9343719482422 C 6.90635871887207 162.9343719482422 -3.162746429443359 151.6371002197266 -3.162746429443359 137.701171875 C -3.162746429443359 137.701171875 -8.848621368408203 109.3708114624023 -8.848621368408203 81.25381469726563 C -8.848621368408203 53.13681030273438 -3.162746429443359 25.23320007324219 -3.162746429443359 25.23320007324219 C -3.162746429443359 11.29728698730469 6.90635871887207 0 19.32723426818848 0 Z" stroke="none"/>
        </g>
        <g id="Path_200" data-name="Path 200" transform="translate(1160.874 2465.212) rotate(-171)" stroke-linecap="round">
          <path d="M 8.757171630859375 152.7949829101563 C 4.627076625823975 152.7949829101563 -2.597256660461426 148.1945190429688 -10.09661388397217 140.7889251708984 C -13.99542331695557 136.9388885498047 -17.84599494934082 132.4385986328125 -21.23204231262207 127.7745742797852 C -24.97966194152832 122.612548828125 -28.15011405944824 117.3011932373047 -30.65535163879395 111.9880294799805 C -32.65411376953125 107.7490005493164 -34.20809173583984 103.5384063720703 -35.27411270141602 99.47319030761719 C -36.42242431640625 95.09414672851563 -37.01668548583984 90.83271789550781 -37.04039764404297 86.80726623535156 C -37.09337615966797 77.81914520263672 -34.33054351806641 69.87892913818359 -28.82868576049805 63.20721817016602 C -19.37075614929199 51.73821640014648 1.429457783699036 44.85474014282227 17.21319580078125 41.09981155395508 C 26.86712455749512 38.80314636230469 37.31405258178711 37.01595306396484 48.26381301879883 35.78790664672852 C 58.32033920288086 34.66004943847656 68.45072174072266 34.06388473510742 77.55976867675781 34.06388473510742 C 86.50391387939453 34.06388473510742 94.18764495849609 34.6352424621582 99.78031158447266 35.71619415283203 C 102.6166229248047 36.26440811157227 104.8789825439453 36.93633651733398 106.5045318603516 37.71331024169922 C 108.0996932983398 38.47576522827148 109.0487899780273 39.31750106811523 109.3254852294922 40.21512222290039 C 109.5254821777344 40.8640022277832 109.3767929077148 41.55357360839844 108.8709106445313 42.32326507568359 C 108.3001708984375 43.19166946411133 107.2841491699219 44.12697982788086 105.85107421875 45.10319137573242 C 99.51241302490234 49.42116928100586 89.88250732421875 54.10293197631836 77.22888946533203 59.01845550537109 C 67.08969879150391 62.95719146728516 55.00291061401367 67.05136108398438 41.30429077148438 71.18719482421875 C 17.97412490844727 78.23095703125 -2.203613758087158 83.01312255859375 -2.404708862304688 83.06060028076172 L -2.956185102462769 83.19081115722656 L -2.758327960968018 83.72178649902344 C -2.704732656478882 83.86566925048828 2.653195858001709 98.28855133056641 7.050219535827637 113.804573059082 C 12.83388614654541 134.2137451171875 14.36029148101807 147.2052612304688 11.46438598632813 151.3746643066406 C 10.80057716369629 152.3303833007813 9.915053367614746 152.7949829101563 8.757171630859375 152.7949829101563 Z" stroke="none"/>
          <path d="M 8.75715160369873 152.2949981689453 C 9.752701759338379 152.2949981689453 10.48245143890381 151.9119262695313 11.05370140075684 151.0894622802734 C 12.09572696685791 149.5892181396484 13.06270217895508 145.8802642822266 11.75182723999023 136.7305755615234 C 10.8865270614624 130.6909484863281 9.143351554870605 123.0252456665039 6.570726871490479 113.9463653564453 C 2.179351806640625 98.44921875 -3.173323154449463 84.04009246826172 -3.226873159408569 83.89636993408203 L -3.622523307800293 82.83441925048828 L -2.519598245620728 82.57399749755859 C -2.318573236465454 82.52651977539063 17.85355186462402 77.74546813964844 41.17020034790039 70.70539093017578 C 54.85452651977539 66.57364654541016 66.92720031738281 62.4841194152832 77.05287933349609 58.55041885375977 C 89.66867828369141 53.64934539794922 99.26307678222656 48.98601913452148 105.569580078125 44.68996810913086 C 106.9483032226563 43.75077056884766 107.9184494018555 42.86209487915039 108.4531021118164 42.04864501953125 C 108.8719253540039 41.41139602661133 109.0009994506836 40.85979461669922 108.8476791381836 40.36239242553711 C 108.6171035766602 39.6143684387207 107.7322998046875 38.85432052612305 106.2889022827148 38.1644172668457 C 104.7017288208008 37.40576934814453 102.4800033569336 36.74721908569336 99.68545532226563 36.20709228515625 C 94.12355041503906 35.13209533691406 86.47262573242188 34.56386947631836 77.55979919433594 34.56386947631836 C 68.46905517578125 34.56386947631836 58.35792541503906 35.15894317626953 48.31957626342773 36.28479385375977 C 37.38992691040039 37.51059341430664 26.96317672729492 39.29424285888672 17.32892608642578 41.58621978759766 C 6.709476947784424 44.11256790161133 -2.504223108291626 47.1621208190918 -10.05622291564941 50.65011978149414 C -18.38289833068848 54.49591827392578 -24.5690975189209 58.8277702331543 -28.44294738769531 63.52531814575195 C -33.8682975769043 70.10427093505859 -36.59267425537109 77.93644714355469 -36.54042434692383 86.8043212890625 C -36.51694869995117 90.78799438476563 -35.92817306518555 95.00774383544922 -34.79047393798828 99.34636688232422 C -33.73222351074219 103.381965637207 -32.18882369995117 107.5634918212891 -30.20312309265137 111.7747955322266 C -27.71117401123047 117.0597686767578 -24.55674743652344 122.3440475463867 -20.82744789123535 127.480842590332 C -17.4571475982666 132.1231384277344 -13.62502288818359 136.6019897460938 -9.745323181152344 140.4331970214844 C -6.067923069000244 144.0646209716797 -2.382448196411133 147.088623046875 0.9126768112182617 149.1783142089844 C 4.127776622772217 151.2172698974609 6.840351581573486 152.2949981689453 8.75715160369873 152.2949981689453 M 8.75715160369873 153.2949981689453 C -6.184573173522949 153.2949981689453 -57.40827178955078 97.07779693603516 -29.21444892883301 62.88909530639648 C -12.47264385223389 42.58746719360352 41.95084762573242 33.56387710571289 77.559814453125 33.56387710571289 C 101.9176788330078 33.56387710571289 117.4761581420898 37.7890510559082 106.1325759887695 45.51641845703125 C 78.20570373535156 64.54051971435547 -2.289798259735107 83.54721832275391 -2.289798259735107 83.54721832275391 C -2.289798259735107 83.54721832275391 23.69890213012695 153.2949981689453 8.75715160369873 153.2949981689453 Z" stroke="none"/>
        </g>
      </g>
    </g>
  </g>
</svg>
